<svg xmlns="http://www.w3.org/2000/svg" xmlns:xlink="http://www.w3.org/1999/xlink" width="500" zoomAndPan="magnify" viewBox="0 0 375 374.999991" height="500" preserveAspectRatio="xMidYMid meet" version="1.0"><defs><clipPath id="71dc29b77f"><path d="M 62 136 L 258 136 L 258 345.851562 L 62 345.851562 Z M 62 136 " clip-rule="nonzero"/></clipPath><clipPath id="0c5e299f07"><path d="M 166 72 L 360.609375 72 L 360.609375 261 L 166 261 Z M 166 72 " clip-rule="nonzero"/></clipPath></defs><path fill="#239e8c" d="M 138.140625 140.496094 C 132.503906 151.722656 136.085938 164.945312 146.144531 170.007812 C 152.617188 173.265625 160.179688 172.332031 166.28125 168.277344 L 177.40625 173.878906 L 140.617188 247.160156 L 98.949219 226.175781 L 104.296875 215.527344 C 111.578125 215.148438 118.214844 211.359375 121.46875 204.878906 C 126.527344 194.804688 121.519531 182.074219 110.308594 176.429688 C 99.09375 170.78125 85.902344 174.351562 80.847656 184.425781 C 77.59375 190.90625 78.515625 198.5 82.574219 204.589844 L 77.226562 215.242188 L 28.277344 190.59375 L 58.667969 130.0625 L 47.902344 124.640625 C 41.820312 128.707031 34.238281 129.632812 27.765625 126.375 C 17.707031 121.308594 14.121094 108.089844 19.757812 96.859375 C 25.398438 85.628906 38.132812 80.628906 48.191406 85.691406 C 54.660156 88.949219 58.441406 95.597656 58.8125 102.910156 L 69.578125 108.328125 L 95.175781 57.335938 L 122.320312 71.003906 L 126.199219 63.28125 C 122.136719 57.191406 121.214844 49.597656 124.46875 43.117188 C 129.527344 33.046875 142.726562 29.457031 153.941406 35.101562 C 165.152344 40.746094 170.148438 53.5 165.089844 63.574219 C 161.835938 70.054688 155.199219 73.839844 147.898438 74.210938 L 144.019531 81.929688 L 207.515625 113.902344 L 188.316406 152.148438 L 177.191406 146.542969 C 176.800781 139.222656 173.039062 132.582031 166.570312 129.324219 C 156.511719 124.261719 143.777344 129.265625 138.140625 140.496094 " fill-opacity="1" fill-rule="nonzero"/><g clip-path="url(#71dc29b77f)"><path fill="#e77d67" d="M 173.027344 196.222656 C 179.289062 192.582031 186.894531 193.058594 193.226562 196.738281 L 204 190.472656 L 182.53125 153.457031 L 142.398438 176.800781 L 136.6875 166.957031 C 140.339844 160.613281 140.773438 152.921875 137.101562 146.59375 C 131.390625 136.75 117.972656 133.871094 107.097656 140.195312 C 96.25 146.503906 92.070312 159.621094 97.777344 169.464844 C 101.449219 175.792969 108.335938 179.226562 115.667969 179.183594 L 121.378906 189.03125 L 73.796875 216.703125 L 102.410156 266.039062 L 91.992188 272.097656 C 85.6875 268.425781 78.066406 267.960938 71.800781 271.605469 C 62.066406 277.269531 59.269531 290.660156 65.585938 301.550781 C 71.890625 312.417969 84.902344 316.644531 94.640625 310.980469 C 100.902344 307.339844 104.273438 300.472656 104.203125 293.152344 L 114.621094 287.089844 L 148.601562 345.679688 L 195.976562 318.117188 L 190 307.808594 C 182.6875 307.882812 175.835938 304.503906 172.195312 298.230469 C 166.542969 288.480469 170.773438 275.472656 181.625 269.160156 C 192.480469 262.84375 205.859375 265.609375 211.515625 275.363281 C 215.152344 281.632812 214.6875 289.269531 211.019531 295.582031 L 217 305.890625 L 257.332031 282.433594 L 216.199219 211.507812 L 205.429688 217.773438 C 205.480469 225.105469 202.128906 231.957031 195.863281 235.601562 C 186.128906 241.261719 173.117188 237.039062 166.8125 226.167969 C 160.507812 215.296875 163.292969 201.886719 173.027344 196.222656 " fill-opacity="1" fill-rule="nonzero"/></g><g clip-path="url(#0c5e299f07)"><path fill="#f4c84b" d="M 320.167969 153.425781 C 326.332031 156.152344 329.929688 162.707031 330.238281 170.308594 L 340.367188 174.78125 L 360.597656 128.8125 L 290.886719 98.039062 L 285.476562 110.324219 C 289.328125 116.289062 290.167969 124.121094 287.027344 131.257812 C 282.148438 142.34375 269.527344 147.515625 258.851562 142.800781 C 248.15625 138.082031 243.449219 125.261719 248.332031 114.175781 C 251.472656 107.039062 257.832031 102.382812 264.808594 101.199219 L 270.214844 88.914062 L 233.835938 72.851562 L 218.074219 108.667969 L 207.464844 103.988281 C 206.484375 97.253906 202.214844 91.164062 195.589844 88.242188 C 185.292969 83.695312 173.210938 88.453125 168.605469 98.914062 C 164.011719 109.351562 168.644531 121.515625 178.945312 126.0625 C 185.566406 128.988281 192.9375 128.035156 198.566406 124.203125 L 209.171875 128.886719 L 179.3125 196.734375 L 218.816406 214.171875 L 216.1875 220.148438 C 208.984375 220.777344 202.644531 224.683594 199.828125 231.082031 C 195.449219 241.027344 201.21875 253.207031 212.703125 258.277344 C 224.1875 263.347656 237.058594 259.390625 241.433594 249.449219 C 244.25 243.050781 242.847656 235.726562 238.433594 229.96875 L 241.066406 223.992188 L 306.074219 252.691406 L 329.828125 198.722656 L 319.703125 194.25 C 313.878906 199.171875 306.621094 200.933594 300.453125 198.214844 C 290.875 193.984375 287.546875 180.535156 292.992188 168.160156 C 298.425781 155.808594 310.585938 149.199219 320.167969 153.425781 " fill-opacity="1" fill-rule="nonzero"/></g></svg>